PathFileType	4	(X/Y/Z)	s06c0202.trc
DataRate	CameraRate	NumFrames	NumMarkers	Units	OrigDataRate	OrigDataStartFrame	OrigNumFrames
200	200	4	48	mm	200	1000	2000
Frame#	Time	racr			lacr			c7			jug			rlel			rdr			llel			ldr			s2			lic			ric			lasi			rasi			rpsi			lpsi			rgt			lgt			rth1			rth2			rth3			rth4			rlfc			rmfc			rsh1			rsh2			rsh3			rsh4			rlmal			rcal			rtoe			rmt5			lth1			lth2			lth4			lth3			llfc			lmfc			llmal			lcal			lmt5			lsh1			lsh2			lsh3			lsh4			ltoe			SBIKE			LBIKE			RBIKE			
		X1	Y1	Z1	X2	Y2	Z2	X3	Y3	Z3	X4	Y4	Z4	X5	Y5	Z5	X6	Y6	Z6	X7	Y7	Z7	X8	Y8	Z8	X9	Y9	Z9	X10	Y10	Z10	X11	Y11	Z11	X12	Y12	Z12	X13	Y13	Z13	X14	Y14	Z14	X15	Y15	Z15	X16	Y16	Z16	X17	Y17	Z17	X18	Y18	Z18	X19	Y19	Z19	X20	Y20	Z20	X21	Y21	Z21	X22	Y22	Z22	X23	Y23	Z23	X24	Y24	Z24	X25	Y25	Z25	X26	Y26	Z26	X27	Y27	Z27	X28	Y28	Z28	X29	Y29	Z29	X30	Y30	Z30	X31	Y31	Z31	X32	Y32	Z32	X33	Y33	Z33	X34	Y34	Z34	X35	Y35	Z35	X36	Y36	Z36	X37	Y37	Z37	X38	Y38	Z38	X39	Y39	Z39	X40	Y40	Z40	X41	Y41	Z41	X42	Y42	Z42	X43	Y43	Z43	X44	Y44	Z44	X45	Y45	Z45	X46	Y46	Z46	X47	Y47	Z47	X48	Y48	Z48	
1000	5.0000	538.359782	1218.543885	-66.243950	567.670176	1196.724386	-381.071878	546.121647	1309.276298	-226.794143	523.527874	1143.758709	-221.725183	469.263758	983.106077	58.431555	647.057597	914.844205	-63.737514	472.209271	977.202587	-519.798103	650.011368	911.708999	-406.102985	-3.876980	1131.675610	-262.684473	161.605582	1083.294603	-409.582183	121.366231	1105.251291	-80.261118	173.080748	1037.407504	-366.914461	147.994856	1087.052490	-100.197436	22.984088	1169.814111	-227.537585	30.443829	1164.691244	-287.619906	97.166572	1036.314245	-46.330028	135.238197	1014.585626	-441.112764	192.893085	940.243000	-24.012053	268.783380	889.581362	-25.231077	307.258931	811.232777	-27.830227	294.390486	914.781226	-39.339787	355.931279	714.692691	-43.114401	361.672045	690.646145	-149.960779	325.129580	592.935430	-20.857228	328.766771	507.180514	-40.108812	290.142426	429.659979	-47.666618	352.540224	507.110761	-72.746590	264.630474	350.200319	-54.569451	201.473785	322.493004	-104.050974	476.148365	288.692054	-99.675890	377.105602	273.281949	-30.844535	196.060902	920.858447	-448.574228	273.837083	882.646645	-441.189754	296.794477	908.914412	-427.848728	323.649221	808.529662	-438.527007	358.946895	707.579274	-407.812431	357.456397	697.632673	-291.526894	59.060485	500.092680	-376.706836	-9.264154	532.667646	-328.071775	87.300526	362.860630	-402.734535	282.505788	631.801990	-421.391413	225.162069	572.647878	-392.821671	141.528524	542.006063	-388.507654	240.964338	559.828022	-358.463588	150.645750	301.543614	-346.147547	-202.736636	865.838497	-216.540495	-49.131055	79.405475	-415.450661	-49.185418	79.754966	-17.918067	
1001	5.0050	538.602086	1219.875457	-66.705294	567.679202	1198.358371	-382.231409	546.455152	1310.543773	-227.733424	523.682514	1145.234780	-222.716894	469.727736	984.476661	57.594786	647.633394	915.263526	-63.786721	472.693040	977.277336	-520.226716	650.316660	912.026276	-406.126422	-3.024671	1132.340564	-261.726838	161.498812	1084.818693	-409.502537	121.731444	1106.529303	-79.502166	173.750715	1039.245901	-366.172108	148.601788	1089.270070	-99.050194	23.650431	1170.405490	-226.639283	30.857896	1165.664805	-286.573153	96.189148	1034.634178	-46.331424	136.880117	1017.294019	-440.376664	190.285997	935.263240	-22.941463	264.963363	882.239230	-23.765842	300.676032	802.451622	-27.989931	291.488705	906.678329	-37.663537	348.345918	705.135257	-42.380243	352.487433	680.834550	-149.679510	318.841836	583.440437	-19.928267	323.385172	497.627714	-39.393991	285.788877	419.687498	-46.857887	347.003833	497.921163	-72.146563	261.386813	340.082834	-53.796800	198.188918	312.894661	-103.117623	472.667667	277.669109	-99.719418	373.821928	262.555922	-30.560384	198.603830	925.188797	-447.717992	277.333752	888.843741	-440.397665	299.510574	915.381036	-426.191079	328.869442	815.774781	-438.545603	365.127243	715.347241	-407.540254	359.928006	705.053968	-292.941890	63.327526	510.558249	-376.754659	-4.870195	543.486280	-328.344791	91.122255	373.216130	-402.731302	288.203356	640.140563	-421.308654	230.224087	581.504936	-392.658282	146.221977	551.711102	-388.480238	245.857140	568.556285	-358.288824	154.280784	311.692976	-346.130851	-202.722368	865.853646	-216.363611	-49.133838	79.452782	-415.426616	-49.191563	79.758131	-17.900899	
1002	5.0100	538.953937	1221.263489	-67.298174	567.788148	1199.737749	-383.412745	547.242189	1311.995317	-228.824656	523.883941	1146.642755	-223.794537	470.285954	985.858479	56.745846	648.204067	915.569661	-63.838637	473.265677	977.276174	-520.590892	650.533881	912.277450	-405.999434	-2.210747	1133.270083	-260.639813	161.248702	1086.401234	-409.337272	122.477314	1107.945164	-78.652165	174.422069	1041.285268	-365.463114	149.402837	1089.141976	-97.310163	24.427110	1171.433889	-225.351047	31.253098	1166.761998	-285.353194	95.704405	1033.294548	-45.970618	138.184096	1020.328299	-439.412543	188.717206	930.069190	-21.581820	260.702818	874.777898	-22.451016	294.460737	794.606794	-27.303835	288.393769	898.462042	-36.230583	340.048899	695.843521	-41.814322	343.020513	671.905456	-148.746254	312.095230	573.949033	-19.239035	317.536854	488.347722	-38.671613	280.883124	409.886215	-46.087498	340.584665	488.945907	-71.535350	257.558191	330.244207	-52.959551	194.861320	302.985647	-102.629981	468.587866	266.742709	-99.742217	369.873207	252.211713	-30.256172	200.890237	930.072630	-446.533858	280.452683	895.410151	-439.663133	301.986842	922.226259	-424.747094	333.632798	823.788617	-438.842512	371.267114	723.501181	-407.169030	365.433112	713.037435	-292.570893	68.191343	520.769381	-376.778575	-0.352820	553.738914	-328.174393	95.615515	383.522818	-402.748429	293.925164	648.640996	-420.887660	235.492218	590.645364	-392.402404	151.225496	561.315679	-388.396262	250.950769	577.350328	-358.040331	158.576680	321.582093	-345.689846	-202.707248	865.834509	-216.178778	-48.981802	79.565454	-415.529246	-49.171349	79.756090	-17.873842	
1003	5.0150	539.308579	1222.895125	-67.419157	568.101665	1200.914616	-384.568707	548.316381	1313.492000	-230.056717	524.018867	1148.132630	-224.785277	470.825944	987.410206	55.989648	648.715504	915.750554	-63.808842	473.760831	977.377763	-521.171777	650.850117	912.449712	-405.633344	-1.489709	1134.464999	-259.024026	160.881890	1087.979891	-409.006423	123.698445	1109.630293	-77.791507	174.723653	1043.263951	-364.705435	149.757704	1089.571846	-95.672394	25.608750	1172.298723	-224.036832	31.774062	1168.195233	-284.122534	95.629042	1032.188913	-45.623758	139.317010	1023.920224	-438.295037	186.736771	925.588987	-20.381087	256.272879	867.642127	-21.939505	287.564366	786.391018	-27.663201	285.140724	890.744926	-34.864146	330.728905	686.759326	-41.509709	332.976406	662.185249	-147.791750	304.797148	564.804102	-18.728031	311.228416	479.231300	-38.172584	275.449612	400.292767	-45.435286	334.046530	480.153770	-71.252172	253.224514	320.925843	-52.206959	190.456191	294.315001	-101.706682	463.891494	256.060451	-99.783704	365.392036	242.097123	-30.017394	202.868872	935.356769	-445.207746	283.265051	902.349379	-438.789039	304.198398	929.461475	-423.418164	337.930408	831.926962	-438.756899	377.384248	732.077414	-406.723582	371.986148	721.887381	-291.645266	73.239251	530.846373	-376.706866	4.431716	563.689414	-328.111635	100.788375	393.656381	-402.721471	299.715517	657.621581	-420.486659	240.922857	599.787246	-392.135118	156.498175	571.034641	-388.223894	256.244134	586.406698	-357.779474	163.695735	331.680386	-345.687074	-202.660786	865.915448	-216.146692	-48.978262	79.620872	-415.502011	-49.166391	79.754802	-17.864319	
